<svg width="512" height="512" viewBox="0 0 512 512" fill="none" xmlns="http://www.w3.org/2000/svg">
  <!-- Gear Body -->
  <path d="M256 120C248.268 120 242 113.732 242 106V84C242 76.268 248.268 70 256 70C263.732 70 270 76.268 270 84V106C270 113.732 263.732 120 256 120Z" fill="#F98B50"/>
  <path d="M256 392C248.268 392 242 398.268 242 406V428C242 435.732 248.268 442 256 442C263.732 442 270 435.732 270 428V406C270 398.268 263.732 392 256 392Z" fill="#F98B50"/>
  <path d="M120 256C120 263.732 113.732 270 106 270H84C76.268 270 70 263.732 70 256C70 248.268 76.268 242 84 242H106C113.732 242 120 248.268 120 256Z" fill="#F98B50"/>
  <path d="M392 256C392 263.732 398.268 270 406 270H428C435.732 270 442 263.732 442 256C442 248.268 435.732 242 428 242H406C398.268 242 392 248.268 392 256Z" fill="#F98B50"/>
  
  <!-- Diagonal Teeth -->
  <path d="M184.268 184.268C178.801 189.735 169.933 189.735 164.466 184.268L148.909 168.711C143.442 163.244 143.442 154.376 148.909 148.909C154.376 143.442 163.244 143.442 168.711 148.909L184.268 164.466C189.735 169.933 189.735 178.801 184.268 184.268Z" fill="#F98B50"/>
  <path d="M347.534 347.534C342.067 353.001 333.199 353.001 327.732 347.534L312.175 331.977C306.708 326.51 306.708 317.642 312.175 312.175C317.642 306.708 326.51 306.708 331.977 312.175L347.534 327.732C353.001 333.199 353.001 342.067 347.534 347.534Z" fill="#F98B50"/>
  <path d="M347.534 164.466C353.001 169.933 353.001 178.801 347.534 184.268L331.977 199.825C326.51 205.292 317.642 205.292 312.175 199.825C306.708 194.358 306.708 185.49 312.175 180.023L327.732 164.466C333.199 158.999 342.067 158.999 347.534 164.466Z" fill="#F98B50"/>
  <path d="M184.268 327.732C189.735 333.199 189.735 342.067 184.268 347.534L168.711 363.091C163.244 368.558 154.376 368.558 148.909 363.091C143.442 357.624 143.442 348.756 148.909 343.289L164.466 327.732C169.933 322.265 178.801 322.265 184.268 327.732Z" fill="#F98B50"/>

  <!-- Main Ring -->
  <circle cx="256" cy="256" r="145" stroke="#F98B50" stroke-width="22" fill="none"/>
  
  <!-- Inner Detail Circle with dots -->
  <circle cx="256" cy="256" r="100" stroke="#F98B50" stroke-width="6" fill="none"/>
  <circle cx="185" cy="185" r="8" fill="#F98B50"/>
  <circle cx="327" cy="327" r="8" fill="#F98B50"/>

  <!-- Checkmark -->
  <path d="M200 256L240 296L320 216" stroke="#F98B50" stroke-width="28" stroke-linecap="round" stroke-linejoin="round" fill="none"/>
</svg>
